<svg height='100px' width='100px'  fill="#2ea44f" xmlns:dc="http://purl.org/dc/elements/1.1/" xmlns:cc="http://creativecommons.org/ns#" xmlns:rdf="http://www.w3.org/1999/02/22-rdf-syntax-ns#" xmlns:svg="http://www.w3.org/2000/svg" xmlns="http://www.w3.org/2000/svg" xmlns:sodipodi="http://sodipodi.sourceforge.net/DTD/sodipodi-0.dtd" xmlns:inkscape="http://www.inkscape.org/namespaces/inkscape" version="1.1" x="0px" y="0px" viewBox="0 0 100 100"><g transform="translate(0,-952.36218)"><path style="text-indent:0;text-transform:none;direction:ltr;block-progression:tb;baseline-shift:baseline;color:#000000;enable-background:accumulate;" d="m 49.999998,957.36215 c -7.158,0 -14.3549,2.72997 -19.8125,8.1875 -4.0587,4.05867 -6.5192,9.0935 -7.5625,14.34375 -10.5909,2.05454 -18.6249995,11.30393 -18.6249995,22.4688 0,12.6669 10.3329995,23 22.9999995,23 l 11,0 a 3.0003,3.0003 0 1 0 0,-6 l -11,0 c -9.4242,0 -16.9999995,-7.5758 -16.9999995,-17 0,-8.89991 6.7684995,-16.1505 15.4374995,-16.93755 a 3.0003,3.0003 0 0 0 2.6875,-2.625 c 0.552,-4.75509 2.6561,-9.37488 6.3125,-13.03125 4.3056,-4.30547 9.9243,-6.40625 15.5625,-6.40625 5.6382,0 11.221501,2.09633 15.5312,6.40625 4.9804,4.98032 7.087901,11.74679 6.3126,18.21875 a 3.0003,3.0003 0 0 0 2.968701,3.375 l 1.1875,0 c 7.807899,0 14,6.19211 14,14.00005 0,7.8079 -6.192101,14 -14,14 l -14.000001,0 a 3.0003,3.0003 0 1 0 0,6 l 14.000001,0 c 11.028099,0 20.000002,-8.9719 20.000002,-20 0,-10.4082 -8.018203,-18.88115 -18.187502,-19.81255 0.047,-7.23903 -2.5242,-14.49301 -8.0313,-20 -5.4528,-5.45308 -12.6232,-8.1875 -19.7812,-8.1875 z m 0,50.00005 c -1.6571,0 -3,1.3432 -3,3 l 0,27.2187 -5.9688,-5.4375 c -1.1634,-1.0544 -3.1896,-0.9706 -4.25,0.1875 -1.0603,1.1581 -1.0826,3.0712 0.1876,4.25 l 11,10 c 0.5021,0.4594 1.031,0.7813 2.0312,0.7813 1.0002,0 1.4369,-0.2372 2.0312,-0.7813 l 11,-10 c 1.153001,-1.0659 1.369501,-3.0919 0.1876,-4.25 -1.1216,-1.099 -3.0865,-1.2419 -4.25,-0.1875 l -5.9688,5.4375 0,-27.2187 c 0,-1.6568 -1.3428,-3 -3,-3 z" fill="#2ea44f" fill-opacity="1" stroke="none" marker="none" visibility="visible" display="inline" overflow="visible"></path></g></svg>