<svg height='100px' width='100px'  fill="#d82426" xmlns="http://www.w3.org/2000/svg" data-name="Layer 2" viewBox="0 0 32 32" x="0px" y="0px"><title>file format document</title><path d="M27.35,7.65l-6-6A.47.47,0,0,0,21,1.5H6.43A1.94,1.94,0,0,0,4.5,3.43V13a.5.5,0,0,0,1,0V3.43a.93.93,0,0,1,.93-.93H20.5V8a.5.5,0,0,0,.5.5h5.5V28.57a.93.93,0,0,1-.93.93H6.43a.93.93,0,0,1-.93-.93V26a.5.5,0,0,0-1,0v2.57A1.94,1.94,0,0,0,6.43,30.5H25.57a1.94,1.94,0,0,0,1.93-1.93V8A.47.47,0,0,0,27.35,7.65ZM21.5,3.21,25.79,7.5H21.5Z"></path><path d="M12.66,17.71h-.88v3.57h1a2.14,2.14,0,0,0,1.46-.45,1.72,1.72,0,0,0,.5-1.33C14.71,18.3,14,17.71,12.66,17.71Z"></path><path d="M7.57,17.69h-.9v2.09h1a1.33,1.33,0,0,0,1-.28A1.14,1.14,0,0,0,9,18.68a.87.87,0,0,0-.34-.77A2,2,0,0,0,7.57,17.69Z"></path><path d="M23.5,22.88V16.12a1.61,1.61,0,0,0-1.62-1.62H4.12A1.61,1.61,0,0,0,2.5,16.12v6.76A1.61,1.61,0,0,0,4.12,24.5H21.88A1.61,1.61,0,0,0,23.5,22.88ZM9.3,20.14a2.72,2.72,0,0,1-1.7.44H6.67v1.53H5.79V16.89H7.58a2.61,2.61,0,0,1,1.73.46,1.7,1.7,0,0,1,.55,1.4A1.68,1.68,0,0,1,9.3,20.14Zm5.57,1.26a3.14,3.14,0,0,1-2.24.71H10.9V16.89h1.79a3.07,3.07,0,0,1,2.15.69,2.42,2.42,0,0,1,.76,1.89A2.59,2.59,0,0,1,14.87,21.4Zm5.33-3.69H17.61v1.44h2.31V20H17.61v2.15h-.88V16.89h3.48Z"></path></svg>